s<?xml version="1.0" encoding="UTF-8"?>
<svg width="24px" height="36px" viewBox="0 0 24 36" version="1.1" xmlns="http://www.w3.org/2000/svg" xmlns:xlink="http://www.w3.org/1999/xlink">
    <title>map_icon_nail_nor</title>
    <g id="规范" stroke="none" stroke-width="1" fill="none" fill-rule="evenodd">
        <g id="01-通用组件" transform="translate(-600.000000, -942.000000)">
            <g id="icon" transform="translate(600.000000, 942.000000)">
                <rect id="#" fill="#D8D8D8" opacity="0" x="0" y="0" width="24" height="36"></rect>
                <path d="M12,34 C13.6570735,34 15,34.4474506 15,35 C15,35.5525494 13.6570735,36 12,36 C10.3429265,36 9,35.5525494 9,35 C9,34.4474506 10.3429265,34 12,34" id="Fill-1" fill="#000000" opacity="0.322772531"></path>
                <path d="M10.4971838,0.60510989 C12.9731599,0.269887504 15.490605,0.741194095 17.6880949,1.95414459 C19.8355963,3.17406408 21.5376856,5.06139962 22.5382662,7.33634233 C23.6663266,9.87901647 23.8075129,12.7585488 22.9326657,15.4019758 C22.2359084,17.2161527 21.243689,18.8716456 19.9922666,20.3175754 C19.5994645,20.8040399 19.1991259,21.2851157 18.7986438,21.7663348 C17.7269127,23.0541264 16.6534363,24.3424671 15.7257919,25.7429941 C15.6157554,25.9084451 15.5095455,26.0758307 15.4071637,26.2451519 C15.3045137,26.4149167 15.2028046,26.5895215 15.1034377,26.7699912 C15.0042069,26.9492421 14.9078616,27.1304389 14.8144113,27.3145608 C14.7216737,27.4972784 14.6327485,27.6819239 14.5467903,27.8723569 C14.4599964,28.0625153 14.3770665,28.2536516 14.2970233,28.4467355 C14.2173489,28.6389297 14.141515,28.8330655 14.0689607,29.0306584 C13.9972056,29.2241472 13.9292766,29.4205382 13.8651754,29.6207992 C13.8004165,29.8231147 13.7395143,30.0234728 13.6826625,30.2232187 C13.6261491,30.4227452 13.5744374,30.6232434 13.5265448,30.8256755 C13.47851,31.0287087 13.4352875,31.2307723 13.3962494,31.4310184 C13.3579375,31.6315017 13.3234466,31.8339204 13.2937549,32.0363408 C13.2643549,32.2367725 13.239649,32.43624 13.2214078,32.6361647 C13.2023404,32.8347576 13.1880388,33.0333505 13.1785051,33.2319434 C12.4175787,34.0149914 12.0369015,34.162649 11.788556,34.1958095 C11.6605635,34.2128998 11.4906734,34.2098654 11.2682555,34.1696704 C10.7180429,29.3254268 8.73905132,25.9774183 6.17937342,22.9015727 C6.03410492,22.7270442 5.88902618,22.5525428 5.74448868,22.3779566 L5.31285136,21.8538317 C2.30767655,18.1816099 -0.303816401,14.422653 0.733312356,9.54097599 C1.25876705,7.15520113 2.50037051,5.06697524 4.21042396,3.50238612 C5.92174112,1.93664079 8.10216207,0.895241135 10.4971838,0.60510989 Z" id="Fill-3" stroke="#FFFFFF" fill="#E63B3B"></path>
            </g>
        </g>
    </g>
</svg>
